<?xml version="1.0" standalone="no"?>
<!DOCTYPE svg PUBLIC "-//W3C//DTD SVG 20010904//EN"
 "http://www.w3.org/TR/2001/REC-SVG-20010904/DTD/svg10.dtd">
<svg version="1.0" xmlns="http://www.w3.org/2000/svg"
 width="256.000000pt" height="256.000000pt" viewBox="0 0 256.000000 256.000000"
 preserveAspectRatio="xMidYMid meet">

<g transform="translate(0.000000,256.000000) scale(0.100000,-0.100000)"
fill="#000000" stroke="none">
<path d="M314 2190 c-30 -12 -64 -58 -64 -88 0 -34 -38 -112 -55 -112 -20 0
-55 -49 -55 -76 0 -21 -5 -24 -35 -24 -25 0 -44 -8 -61 -25 -25 -25 -25 -26
-18 -153 3 -70 8 -129 9 -132 2 -3 6 -73 10 -155 4 -83 9 -166 11 -185 2 -19
6 -197 9 -395 7 -476 9 -493 35 -519 l20 -21 1143 0 c659 -1 1154 3 1170 8 15
5 32 17 37 27 10 19 16 151 25 535 6 285 10 359 41 857 6 105 6 107 -19 132
-20 19 -36 26 -67 26 -38 0 -40 2 -40 30 0 17 -9 39 -20 50 -20 20 -33 20
-624 20 -589 0 -604 0 -629 20 -17 14 -29 37 -36 71 -26 122 -17 119 -428 118
-186 0 -348 -4 -359 -9z m61 -845 c16 -86 32 -150 36 -143 3 7 19 72 34 143
15 72 29 136 31 143 2 8 30 12 94 12 l90 0 1 -342 1 -343 43 270 c23 149 48
303 54 343 l13 72 92 0 93 0 49 -322 49 -323 3 323 2 322 128 0 c143 0 174
-11 213 -72 l20 -33 -6 53 -7 52 76 0 c42 0 76 -3 76 -7 0 -4 14 -95 32 -203
l32 -195 21 130 c12 72 28 163 34 203 l13 72 204 0 204 0 1 -35 c4 -131 7
-125 -61 -125 l-60 0 0 -80 0 -80 60 0 60 0 0 -85 0 -84 -57 -3 -58 -3 2 -57
c0 -32 1 -65 2 -73 1 -11 14 -15 56 -15 60 0 57 4 57 -80 0 -11 0 -36 -1 -55
l-1 -36 -131 3 -131 3 0 370 c0 204 -4 354 -8 335 -4 -19 -34 -187 -66 -372
l-58 -338 -82 0 c-70 0 -83 3 -88 18 -2 9 -22 122 -43 250 -36 223 -38 231
-49 190 -13 -50 -47 -119 -66 -136 -12 -10 -6 -37 38 -167 l53 -156 -75 3 -76
3 -48 130 -49 130 0 -132 -1 -133 -144 0 -144 0 -7 40 -7 40 -53 0 -53 0 -9
-37 -9 -38 -140 -3 -141 -3 2 126 c0 69 -2 122 -5 118 -4 -5 -19 -61 -34 -125
l-28 -118 -38 0 c-21 0 -40 5 -42 13 -3 6 -16 64 -29 127 l-24 115 -3 -127 -3
-128 -74 0 -75 0 0 405 0 405 93 0 94 0 28 -155z m1915 -165 l0 -319 58 -3 57
-3 3 -82 3 -83 -131 0 -130 0 0 405 0 405 70 0 70 0 0 -320z"/>
<path d="M1220 1235 c0 -127 8 -140 55 -89 40 43 37 134 -6 180 -43 46 -49 34
-49 -91z"/>
<path d="M849 1042 l-15 -112 34 0 34 0 -6 43 c-30 196 -30 195 -47 69z"/>
</g>
</svg>
